<?xml version="1.0" encoding="UTF-8"?>
<svg id="Layer_1" data-name="Layer 1" xmlns="http://www.w3.org/2000/svg" xmlns:xlink="http://www.w3.org/1999/xlink" viewBox="0 0 376.266 162.2">
  <defs>
    <style>
      .cls-1 {
        fill: url(#linear-gradient);
      }

      .cls-2 {
        fill: #30354b;
      }

      .cls-3 {
        fill: url(#linear-gradient-3);
      }

      .cls-4 {
        fill: url(#linear-gradient-4);
      }

      .cls-5 {
        fill: url(#linear-gradient-2);
      }

      .cls-6 {
        fill: url(#linear-gradient-6);
      }

      .cls-7 {
        fill: url(#linear-gradient-5);
      }
    </style>
    <linearGradient id="linear-gradient" x1="-.881" y1="74.024" x2="56.467" y2="16.676" gradientTransform="translate(0 165.733) scale(1 -1)" gradientUnits="userSpaceOnUse">
      <stop offset="0" stop-color="#f47d51"/>
      <stop offset=".96" stop-color="#df72ac"/>
    </linearGradient>
    <linearGradient id="linear-gradient-2" x1="56.33" y1="54.938" x2="75.548" y2="35.72" gradientTransform="translate(0 165.733) scale(1 -1)" gradientUnits="userSpaceOnUse">
      <stop offset="0" stop-color="#f15d4c"/>
      <stop offset="1" stop-color="#c36ca1"/>
    </linearGradient>
    <linearGradient id="linear-gradient-3" x1="37.754" y1="102.188" x2="70.457" y2="69.485" gradientTransform="translate(0 165.733) scale(1 -1)" gradientUnits="userSpaceOnUse">
      <stop offset="0" stop-color="#b46947"/>
      <stop offset=".896" stop-color="#ae5262"/>
    </linearGradient>
    <linearGradient id="linear-gradient-4" x1="70.163" y1="165.733" x2="70.163" y2="84.677" gradientTransform="translate(0 165.733) scale(1 -1)" gradientUnits="userSpaceOnUse">
      <stop offset="0" stop-color="#ffd663"/>
      <stop offset="1" stop-color="#f26c7d"/>
    </linearGradient>
    <linearGradient id="linear-gradient-5" x1="14.978" y1="133.775" x2="42.21" y2="106.543" gradientTransform="translate(0 165.733) scale(1 -1)" gradientUnits="userSpaceOnUse">
      <stop offset="0" stop-color="#fff171"/>
      <stop offset="1" stop-color="#fab382"/>
    </linearGradient>
    <linearGradient id="linear-gradient-6" x1="18.502" y1="103.018" x2="56.686" y2="64.834" gradientTransform="translate(0 165.733) scale(1 -1)" gradientUnits="userSpaceOnUse">
      <stop offset="0" stop-color="#d48a3d"/>
      <stop offset=".795" stop-color="#db474e"/>
    </linearGradient>
  </defs>
  <polygon class="cls-1" points="46.936 120.463 46.936 158.588 .16 90.668 46.936 120.463"/>
  <polygon class="cls-5" points="93.391 90.668 46.936 158.588 46.936 120.463 93.391 90.668"/>
  <polygon class="cls-3" points="93.391 81.056 46.936 54.465 46.936 110.851 93.391 81.056"/>
  <polygon class="cls-4" points="93.391 81.056 46.936 0 46.936 54.465 93.391 81.056"/>
  <polygon class="cls-7" points="46.936 0 46.936 54.465 .16 81.056 46.936 0"/>
  <polygon class="cls-6" points="46.936 54.465 46.936 110.851 .16 81.056 46.936 54.465"/>
  <g>
    <path class="cls-2" d="M116.479,28.91c0-2.656,.544-5.009,1.632-7.058,1.088-2.048,2.608-3.632,4.561-4.753,1.952-1.12,4.209-1.68,6.77-1.68,2.464,0,4.665,.576,6.602,1.729,1.936,1.152,3.449,2.769,4.537,4.849,1.088,2.081,1.632,4.449,1.632,7.106v2.016h-18.869c.096,1.601,.704,2.897,1.825,3.889,1.12,.993,2.592,1.488,4.417,1.488,1.28,0,2.464-.28,3.553-.84,1.088-.56,2.272-1.528,3.553-2.904l4.273,4.369c-1.473,1.633-3.169,2.905-5.089,3.817-1.92,.912-4.018,1.368-6.29,1.368-2.593,0-4.881-.561-6.866-1.681-1.985-1.12-3.521-2.696-4.609-4.729-1.088-2.032-1.632-4.361-1.632-6.986Zm18.821-2.785c-.128-1.408-.744-2.576-1.849-3.505-1.104-.928-2.441-1.392-4.009-1.392-1.632,0-2.977,.448-4.033,1.344-1.056,.896-1.712,2.081-1.968,3.553h11.859Z"/>
    <path class="cls-2" d="M146.582,28.862c0-2.624,.544-4.953,1.632-6.986,1.088-2.032,2.617-3.617,4.585-4.753,1.968-1.136,4.217-1.705,6.746-1.705,2.977,0,5.537,.816,7.682,2.449,2.144,1.632,3.601,3.825,4.369,6.578l-6.625,1.824c-.32-1.408-.929-2.521-1.825-3.337-.896-.816-2.097-1.224-3.601-1.224-1.92,0-3.417,.632-4.489,1.896-1.073,1.265-1.608,3.017-1.608,5.257s.536,3.993,1.608,5.257c1.072,1.265,2.569,1.896,4.489,1.896,1.504,0,2.704-.408,3.601-1.224,.896-.816,1.504-1.928,1.825-3.337l6.625,1.824c-.768,2.753-2.225,4.945-4.369,6.578-2.145,1.632-4.705,2.449-7.682,2.449-2.529,0-4.777-.569-6.746-1.705-1.969-1.136-3.498-2.72-4.585-4.753-1.088-2.032-1.632-4.361-1.632-6.986Z"/>
    <path class="cls-2" d="M175.725,28.862c0-2.624,.544-4.953,1.632-6.986,1.088-2.032,2.617-3.617,4.585-4.753,1.968-1.136,4.217-1.705,6.746-1.705,2.56,0,4.825,.569,6.793,1.705,1.969,1.136,3.497,2.721,4.585,4.753,1.088,2.033,1.633,4.362,1.633,6.986s-.545,4.954-1.633,6.986c-1.088,2.033-2.616,3.617-4.585,4.753s-4.233,1.705-6.793,1.705c-2.529,0-4.777-.569-6.746-1.705-1.969-1.136-3.498-2.72-4.585-4.753-1.088-2.032-1.632-4.361-1.632-6.986Zm19.108,0c0-2.24-.536-3.993-1.608-5.257-1.072-1.264-2.585-1.896-4.537-1.896-1.92,0-3.417,.632-4.489,1.896-1.073,1.265-1.608,3.017-1.608,5.257s.536,3.993,1.608,5.257c1.072,1.265,2.569,1.896,4.489,1.896s3.424-.64,4.513-1.92c1.088-1.28,1.632-3.025,1.632-5.233Z"/>
    <path class="cls-2" d="M205.539,33.183l6.242-1.44c.447,1.601,1.256,2.825,2.424,3.673,1.169,.848,2.648,1.272,4.441,1.272,1.601,0,2.824-.192,3.673-.576,.848-.384,1.272-.928,1.272-1.633,0-.799-.432-1.416-1.296-1.848s-2.449-.872-4.754-1.32c-3.776-.704-6.474-1.681-8.09-2.929-1.616-1.249-2.425-2.96-2.425-5.137,0-1.537,.448-2.896,1.345-4.081,.896-1.184,2.152-2.104,3.769-2.761,1.616-.656,3.465-.984,5.546-.984,2.849,0,5.377,.705,7.586,2.112,2.208,1.409,3.696,3.282,4.465,5.618l-5.905,1.92c-.48-1.28-1.257-2.272-2.329-2.977-1.072-.704-2.36-1.057-3.864-1.057-1.249,0-2.241,.201-2.977,.601-.737,.4-1.104,.953-1.104,1.656,0,.641,.408,1.161,1.224,1.561,.816,.4,2.297,.792,4.441,1.176,3.905,.736,6.698,1.752,8.378,3.048,1.681,1.296,2.521,3.097,2.521,5.401,0,1.569-.473,2.945-1.416,4.129-.944,1.185-2.289,2.097-4.033,2.736-1.745,.64-3.753,.96-6.025,.96-3.457,0-6.33-.8-8.618-2.4-2.289-1.601-3.785-3.841-4.489-6.722Z"/>
    <path class="cls-2" d="M243.564,40.577l-10.131-24.438h7.202l6.337,16.276h.097l6.289-16.276h7.202l-14.788,36.249h-7.153l4.945-11.811Z"/>
    <path class="cls-2" d="M261.903,33.183l6.242-1.44c.447,1.601,1.256,2.825,2.424,3.673,1.169,.848,2.648,1.272,4.441,1.272,1.601,0,2.824-.192,3.673-.576,.848-.384,1.272-.928,1.272-1.633,0-.799-.432-1.416-1.296-1.848s-2.449-.872-4.754-1.32c-3.776-.704-6.474-1.681-8.09-2.929-1.616-1.249-2.425-2.96-2.425-5.137,0-1.537,.448-2.896,1.345-4.081,.896-1.184,2.152-2.104,3.769-2.761,1.616-.656,3.465-.984,5.546-.984,2.849,0,5.377,.705,7.586,2.112,2.208,1.409,3.696,3.282,4.465,5.618l-5.905,1.92c-.48-1.28-1.257-2.272-2.329-2.977-1.072-.704-2.36-1.057-3.864-1.057-1.249,0-2.241,.201-2.977,.601-.737,.4-1.104,.953-1.104,1.656,0,.641,.408,1.161,1.224,1.561,.816,.4,2.297,.792,4.441,1.176,3.905,.736,6.698,1.752,8.378,3.048,1.681,1.296,2.521,3.097,2.521,5.401,0,1.569-.473,2.945-1.416,4.129-.944,1.185-2.289,2.097-4.033,2.736-1.745,.64-3.753,.96-6.025,.96-3.457,0-6.33-.8-8.618-2.4-2.289-1.601-3.785-3.841-4.489-6.722Z"/>
    <path class="cls-2" d="M303.002,22.284v10.227c0,.864,.199,1.488,.6,1.873,.4,.384,1.064,.576,1.993,.576h5.81v6.625h-6.434c-2.817,0-4.994-.664-6.53-1.993-1.536-1.328-2.305-3.224-2.305-5.689v-11.619h-6.241v-6.146h6.241v-6.481h6.866v6.481h9.986v6.146h-9.986Z"/>
    <path class="cls-2" d="M317.597,28.91c0-2.656,.544-5.009,1.633-7.058,1.087-2.048,2.608-3.632,4.561-4.753,1.952-1.12,4.209-1.68,6.77-1.68,2.465,0,4.665,.576,6.602,1.729s3.449,2.769,4.537,4.849c1.088,2.081,1.633,4.449,1.633,7.106v2.016h-18.868c.096,1.601,.703,2.897,1.824,3.889,1.12,.993,2.593,1.488,4.417,1.488,1.279,0,2.464-.28,3.553-.84,1.088-.56,2.272-1.528,3.553-2.904l4.273,4.369c-1.473,1.633-3.169,2.905-5.09,3.817-1.92,.912-4.017,1.368-6.289,1.368-2.593,0-4.882-.561-6.866-1.681-1.984-1.12-3.521-2.696-4.608-4.729-1.089-2.032-1.633-4.361-1.633-6.986Zm18.82-2.785c-.128-1.408-.744-2.576-1.848-3.505-1.104-.928-2.441-1.392-4.01-1.392-1.632,0-2.977,.448-4.032,1.344-1.057,.896-1.713,2.081-1.969,3.553h11.858Z"/>
    <path class="cls-2" d="M347.939,16.139h6.049v2.208h.097c.544-.864,1.239-1.528,2.088-1.993,.848-.463,1.784-.696,2.809-.696,2.017,0,3.633,.944,4.85,2.833h.096c1.28-1.888,3.041-2.833,5.281-2.833,1.856,0,3.361,.656,4.514,1.968,1.152,1.313,1.729,3.025,1.729,5.137v18.821h-6.338V23.965c0-.736-.192-1.296-.576-1.68s-.929-.576-1.633-.576c-.672,0-1.208,.216-1.608,.648s-.6,1.017-.6,1.752v17.477h-6.002V23.965c0-.704-.185-1.255-.552-1.656-.368-.4-.889-.6-1.561-.6-.704,0-1.265,.216-1.681,.648s-.624,1.017-.624,1.752v17.477h-6.337V16.139Z"/>
    <path class="cls-2" d="M117.151,85.183l6.241-1.44c.448,1.602,1.256,2.825,2.425,3.673,1.168,.849,2.648,1.272,4.441,1.272,1.6,0,2.825-.191,3.673-.576,.848-.384,1.272-.928,1.272-1.632,0-.8-.432-1.417-1.296-1.849-.864-.433-2.448-.872-4.753-1.32-3.777-.704-6.474-1.681-8.09-2.929s-2.424-2.96-2.424-5.137c0-1.537,.448-2.896,1.344-4.081,.896-1.184,2.152-2.104,3.769-2.761,1.616-.656,3.464-.984,5.545-.984,2.848,0,5.377,.705,7.586,2.112,2.208,1.409,3.697,3.282,4.465,5.618l-5.905,1.921c-.48-1.28-1.257-2.273-2.329-2.977-1.073-.704-2.361-1.057-3.865-1.057-1.248,0-2.241,.201-2.977,.601-.737,.4-1.104,.953-1.104,1.656,0,.641,.408,1.161,1.224,1.56,.816,.4,2.296,.792,4.441,1.177,3.905,.736,6.698,1.752,8.378,3.049,1.68,1.296,2.521,3.097,2.521,5.401,0,1.568-.473,2.945-1.417,4.129-.944,1.185-2.289,2.097-4.033,2.736-1.745,.64-3.753,.96-6.026,.96-3.457,0-6.33-.799-8.618-2.4-2.289-1.6-3.785-3.841-4.489-6.722Z"/>
    <path class="cls-2" d="M146.102,84.943v-16.804h6.866v15.22c0,3.105,1.536,4.657,4.609,4.657,1.376,0,2.473-.424,3.289-1.272,.816-.848,1.224-1.976,1.224-3.385v-15.22h6.866v25.446h-6.578v-2.257h-.096c-.705,.896-1.673,1.617-2.905,2.161-1.233,.544-2.521,.815-3.865,.815-3.009,0-5.329-.823-6.961-2.472s-2.449-3.945-2.449-6.891Z"/>
    <path class="cls-2" d="M176.685,68.139h6.578v2.208h.096c1.888-1.952,4.273-2.929,7.154-2.929,2.239,0,4.249,.561,6.025,1.68,1.776,1.121,3.16,2.697,4.152,4.729,.992,2.033,1.489,4.377,1.489,7.033,0,2.562-.497,4.866-1.489,6.914-.992,2.049-2.385,3.649-4.177,4.802-1.793,1.151-3.825,1.728-6.098,1.728-1.44,0-2.736-.224-3.889-.672-1.152-.447-2.112-1.056-2.881-1.824h-.096v12.579h-6.866v-36.249Zm18.628,12.723c0-2.176-.545-3.912-1.633-5.209-1.088-1.296-2.592-1.944-4.513-1.944-1.536,0-2.856,.537-3.961,1.608-1.104,1.073-1.656,2.377-1.656,3.913v3.312c0,.961,.256,1.856,.768,2.688,.512,.833,1.224,1.505,2.136,2.017,.913,.513,1.928,.769,3.049,.769,1.792,0,3.209-.648,4.249-1.944,1.04-1.297,1.561-3.032,1.561-5.21Z"/>
    <path class="cls-2" d="M206.787,68.139h6.578v2.208h.096c1.889-1.952,4.273-2.929,7.154-2.929,2.239,0,4.249,.561,6.025,1.68,1.776,1.121,3.16,2.697,4.152,4.729,.992,2.033,1.489,4.377,1.489,7.033,0,2.562-.497,4.866-1.489,6.914-.992,2.049-2.385,3.649-4.177,4.802-1.793,1.151-3.825,1.728-6.098,1.728-1.44,0-2.736-.224-3.889-.672-1.152-.447-2.112-1.056-2.881-1.824h-.096v12.579h-6.866v-36.249Zm18.629,12.723c0-2.176-.545-3.912-1.633-5.209-1.088-1.296-2.592-1.944-4.513-1.944-1.536,0-2.856,.537-3.961,1.608-1.104,1.073-1.656,2.377-1.656,3.913v3.312c0,.961,.256,1.856,.768,2.688,.512,.833,1.225,1.505,2.137,2.017,.912,.513,1.928,.769,3.049,.769,1.792,0,3.209-.648,4.249-1.944,1.04-1.297,1.561-3.032,1.561-5.21Z"/>
    <path class="cls-2" d="M236.891,80.862c0-2.624,.544-4.952,1.633-6.985,1.087-2.032,2.616-3.617,4.585-4.753,1.969-1.136,4.217-1.705,6.745-1.705,2.561,0,4.825,.569,6.794,1.705,1.969,1.136,3.497,2.721,4.585,4.753,1.088,2.033,1.633,4.361,1.633,6.985s-.545,4.954-1.633,6.986c-1.088,2.033-2.616,3.617-4.585,4.753s-4.233,1.704-6.794,1.704c-2.528,0-4.776-.568-6.745-1.704s-3.498-2.72-4.585-4.753c-1.089-2.032-1.633-4.361-1.633-6.986Zm19.108,0c0-2.239-.536-3.992-1.608-5.257-1.072-1.264-2.585-1.896-4.537-1.896-1.92,0-3.417,.632-4.488,1.896-1.073,1.265-1.608,3.018-1.608,5.257s.535,3.994,1.608,5.258c1.071,1.265,2.568,1.896,4.488,1.896s3.425-.64,4.514-1.921c1.088-1.279,1.632-3.024,1.632-5.233Z"/>
    <path class="cls-2" d="M268.146,68.139h6.577v2.353h.096c1.088-1.088,2.217-1.873,3.385-2.353,1.169-.48,2.505-.72,4.01-.72,2.208,0,4.112,.648,5.713,1.944s2.721,3.065,3.361,5.306l-6.434,2.113c-.737-2.081-2.257-3.121-4.562-3.121-1.729,0-3.041,.504-3.937,1.512-.896,1.008-1.345,2.393-1.345,4.153v14.26h-6.865v-25.446Z"/>
    <path class="cls-2" d="M307.803,74.284v10.227c0,.864,.199,1.488,.6,1.872,.4,.385,1.064,.576,1.993,.576h5.81v6.626h-6.434c-2.817,0-4.994-.664-6.53-1.992s-2.305-3.225-2.305-5.689v-11.619h-6.241v-6.146h6.241v-6.481h6.866v6.481h9.986v6.146h-9.986Z"/>
    <path class="cls-2" d="M117.439,120.139h6.578v2.209h.096c1.888-1.952,4.273-2.93,7.154-2.93,2.24,0,4.249,.561,6.025,1.681,1.777,1.121,3.161,2.697,4.153,4.729,.992,2.033,1.488,4.377,1.488,7.033,0,2.562-.497,4.866-1.488,6.914-.993,2.049-2.385,3.649-4.177,4.802-1.793,1.151-3.825,1.728-6.097,1.728-1.44,0-2.737-.224-3.889-.672-1.152-.447-2.112-1.056-2.881-1.824h-.096v12.579h-6.866v-36.249Zm18.628,12.723c0-2.176-.544-3.912-1.632-5.209-1.088-1.296-2.593-1.944-4.513-1.944-1.536,0-2.856,.536-3.961,1.608-1.104,1.073-1.656,2.377-1.656,3.913v3.312c0,.961,.256,1.856,.768,2.688,.512,.833,1.224,1.505,2.136,2.017,.913,.513,1.928,.769,3.049,.769,1.792,0,3.208-.648,4.249-1.944,1.04-1.297,1.561-3.032,1.561-5.21Z"/>
    <path class="cls-2" d="M147.734,120.139h6.578v2.353h.096c1.088-1.088,2.216-1.872,3.385-2.353,1.168-.48,2.504-.721,4.009-.721,2.208,0,4.113,.648,5.713,1.945,1.601,1.296,2.72,3.064,3.361,5.305l-6.434,2.113c-.736-2.081-2.256-3.121-4.561-3.121-1.729,0-3.041,.504-3.937,1.513-.896,1.008-1.344,2.393-1.344,4.152v14.26h-6.866v-25.446Z"/>
    <path class="cls-2" d="M173.804,132.862c0-2.624,.544-4.952,1.632-6.985,1.088-2.032,2.617-3.616,4.585-4.753,1.968-1.136,4.217-1.705,6.746-1.705,2.56,0,4.825,.569,6.794,1.705,1.969,1.137,3.496,2.721,4.584,4.753,1.088,2.033,1.633,4.361,1.633,6.985s-.545,4.954-1.633,6.986c-1.088,2.033-2.615,3.617-4.584,4.753s-4.234,1.704-6.794,1.704c-2.529,0-4.777-.568-6.746-1.704-1.969-1.136-3.498-2.72-4.585-4.753-1.088-2.032-1.632-4.361-1.632-6.986Zm19.109,0c0-2.239-.537-3.992-1.609-5.257-1.072-1.264-2.584-1.896-4.536-1.896-1.92,0-3.417,.633-4.489,1.896-1.073,1.265-1.608,3.018-1.608,5.257s.536,3.994,1.608,5.258c1.072,1.265,2.569,1.896,4.489,1.896s3.425-.64,4.513-1.921c1.088-1.279,1.633-3.024,1.633-5.233Z"/>
    <path class="cls-2" d="M205.779,151.25l5.233-3.984c.96,1.376,1.928,2.344,2.904,2.904,.977,.56,2.185,.841,3.625,.841,1.793,0,3.217-.497,4.273-1.489s1.584-2.368,1.584-4.129v-1.824h-.096c-.929,.96-1.913,1.656-2.952,2.089-1.041,.432-2.298,.647-3.77,.647-2.305,0-4.345-.568-6.121-1.704s-3.153-2.72-4.129-4.753c-.978-2.032-1.465-4.361-1.465-6.986,0-2.592,.504-4.904,1.513-6.938,1.008-2.032,2.4-3.625,4.177-4.777s3.801-1.729,6.073-1.729c1.44,0,2.673,.209,3.697,.625s1.969,1.056,2.833,1.92h.096v-1.824h6.626v25.542c0,2.24-.521,4.226-1.561,5.954-1.041,1.729-2.489,3.072-4.346,4.032-1.856,.961-4.001,1.44-6.434,1.44-4.993,0-8.914-1.952-11.763-5.857Zm17.236-16.756v-3.312c0-1.664-.513-2.993-1.536-3.985-1.024-.991-2.337-1.488-3.938-1.488-1.793,0-3.209,.641-4.249,1.921s-1.56,3.024-1.56,5.232c0,2.146,.527,3.874,1.584,5.186,1.057,1.313,2.448,1.969,4.177,1.969,.961,0,1.864-.248,2.713-.744,.848-.496,1.528-1.168,2.04-2.017,.512-.848,.769-1.769,.769-2.761Z"/>
    <path class="cls-2" d="M237.083,120.139h6.577v2.353h.096c1.088-1.088,2.217-1.872,3.385-2.353,1.169-.48,2.505-.721,4.01-.721,2.208,0,4.112,.648,5.713,1.945,1.601,1.296,2.721,3.064,3.361,5.305l-6.434,2.113c-.737-2.081-2.257-3.121-4.562-3.121-1.729,0-3.041,.504-3.937,1.513-.896,1.008-1.345,2.393-1.345,4.152v14.26h-6.865v-25.446Z"/>
    <path class="cls-2" d="M263.776,138.768c0-2.369,.809-4.209,2.425-5.521s4.313-2.272,8.09-2.881c1.984-.319,3.337-.68,4.058-1.08,.72-.4,1.08-.937,1.08-1.608,0-.769-.353-1.376-1.057-1.825-.704-.447-1.664-.672-2.88-.672-1.377,0-2.569,.417-3.577,1.248-1.009,.833-1.656,1.938-1.944,3.313l-6.386-1.44c.319-1.729,1.04-3.265,2.16-4.609,1.12-1.344,2.528-2.393,4.226-3.145,1.696-.752,3.536-1.129,5.521-1.129,3.265,0,5.873,.913,7.825,2.737s2.929,4.257,2.929,7.298v16.132h-6.146v-2.833h-.096c-.736,1.121-1.769,1.993-3.097,2.617-1.329,.624-2.825,.936-4.489,.936s-3.153-.32-4.465-.96c-1.313-.64-2.337-1.536-3.073-2.688s-1.104-2.448-1.104-3.889Zm15.94-2.641v-2.881h-.096c-.288,.479-.769,.864-1.44,1.152-.673,.288-1.729,.576-3.169,.864-1.793,.384-3.024,.792-3.697,1.224-.672,.433-1.008,1.032-1.008,1.801,0,.736,.295,1.296,.888,1.681,.592,.384,1.448,.576,2.569,.576,1.023,0,2-.2,2.929-.601,.928-.399,1.663-.943,2.208-1.632,.544-.688,.816-1.417,.816-2.185Z"/>
    <path class="cls-2" d="M292.535,120.139h6.049v2.209h.097c.544-.864,1.239-1.528,2.088-1.993,.848-.464,1.784-.696,2.809-.696,2.017,0,3.633,.944,4.85,2.833h.096c1.28-1.889,3.041-2.833,5.281-2.833,1.856,0,3.361,.656,4.514,1.969s1.729,3.024,1.729,5.138v18.82h-6.338v-17.62c0-.736-.192-1.297-.576-1.681s-.929-.576-1.633-.576c-.672,0-1.208,.216-1.608,.648-.4,.432-.6,1.017-.6,1.752v17.477h-6.002v-17.62c0-.704-.185-1.256-.552-1.656-.368-.4-.889-.601-1.561-.601-.704,0-1.265,.216-1.681,.648-.416,.432-.624,1.017-.624,1.752v17.477h-6.337v-25.446Z"/>
  </g>
</svg>